<svg width="200" height="50" viewBox="0 0 210 50" xmlns="http://www.w3.org/2000/svg">
    <!-- 264 stargazers -->
    <!-- created at Wed Aug 26 2026 01:18:33 GMT+0000 (Coordinated Universal Time) -->
    <defs>
        <linearGradient id="stroke" x1="0%" y1="0%" x2="100%" y2="0%">
            <stop stop-color="#3023AE" offset="0%"/>
            <stop stop-color="#C86DD7" offset="100%"/>
        </linearGradient>
    </defs>
    <path stroke="url(#stroke)"
        stroke-width="3"
        stroke-linejoin="round"
        stroke-linecap="round"
        d="M5.00 46.0001 C 5.27 44.52, 9.47 19.67, 10.00 18.26 S 13.55 19.27, 15.00 19.65 S 18.51 21.05, 20.00 20.87 S 23.51 18.68, 25.00 18.49 S 28.88 18.59, 30.00 19.59 S 33.50 27.34, 35.00 27.43 S 38.67 20.93, 40.00 20.23 S 43.50 22.16, 45.00 22.14 S 48.65 19.40, 50.00 20.05 S 53.93 25.90, 55.00 26.96 S 58.71 30.66, 60.00 29.90 S 63.51 21.21, 65.00 21.06 S 68.50 28.86, 70.00 28.86 S 73.66 21.73, 75.00 21.05 S 78.88 22.81, 80.00 23.80 S 83.51 29.76, 85.00 29.89 S 88.58 25.17, 90.00 24.69 S 93.51 26.64, 95.00 26.49 S 98.90 22.67, 100.00 23.70 S 103.57 36.26, 105.00 35.81 S 109.32 21.86, 110.00 20.52 S 113.51 15.81, 115.00 16.00 S 118.83 20.89, 120.00 21.83 S 123.65 23.34, 125.00 23.98 S 129.38 25.23, 130.00 26.60 S 133.82 45.08, 135.00 46.00 S 138.50 34.42, 140.00 34.42 S 143.50 46.06, 145.00 46.00 S 149.05 35.21, 150.00 34.05 S 153.50 33.92, 155.00 33.87 S 159.08 34.87, 160.00 33.69 S 163.50 21.08, 165.00 21.03 S 169.05 32.18, 170.00 33.34 S 174.07 32.00, 175.00 33.17 S 178.94 47.06, 180.00 46.00 S 183.50 23.20, 185.00 23.20 S 188.90 44.98, 190.00 46.00 S 193.50 32.51, 195.00 32.51 S 199.11 44.80, 200.00 46.00 S 203.50 46.00, 205.00 46.00"
        fill="none">
        <animate attributeName="stroke-dashoffset"
            from="408.82690735315373" to="0" dur="2.2s"/>
        <animate attributeName="stroke-dasharray"
            from="408.82690735315373" to="408.82690735315373"/>
    </path>
    <circle r="4" cx="5" cy="46" fill="#3023AE"/>
    <circle r="4" cx="205" cy="46" fill="#C86DD7" opacity="0">
        <animate attributeName="opacity"
            from="0" to="1" dur="0.1s" begin="2.2s" fill="freeze"/>
    </circle>
</svg>