<svg width="200" height="50" viewBox="0 0 210 50" xmlns="http://www.w3.org/2000/svg">
    <!-- 339 stargazers -->
    <!-- created at Thu Aug 13 2026 01:59:31 GMT+0000 (Coordinated Universal Time) -->
    <defs>
        <linearGradient id="stroke" x1="0%" y1="0%" x2="100%" y2="0%">
            <stop stop-color="#3023AE" offset="0%"/>
            <stop stop-color="#C86DD7" offset="100%"/>
        </linearGradient>
    </defs>
    <path stroke="url(#stroke)"
        stroke-width="3"
        stroke-linejoin="round"
        stroke-linecap="round"
        d="M5.00 46.0001 C 5.69 44.67, 9.08 37.53, 10.00 36.34 S 13.58 33.50, 15.00 33.02 S 18.56 33.36, 20.00 32.93 S 23.56 30.43, 25.00 30.01 S 28.51 29.92, 30.00 30.06 S 33.76 31.82, 35.00 30.97 S 38.73 24.03, 40.00 23.24 S 43.65 24.07, 45.00 24.73 S 48.51 28.32, 50.00 28.15 S 53.51 23.80, 55.00 23.60 S 58.71 26.05, 60.00 26.82 S 63.51 29.70, 65.00 29.51 S 68.50 25.57, 70.00 25.57 S 73.58 29.02, 75.00 29.51 S 78.53 29.34, 80.00 29.06 S 83.51 27.69, 85.00 27.56 S 88.55 27.80, 90.00 28.18 S 93.61 30.77, 95.00 30.21 S 98.54 23.79, 100.00 24.13 S 103.66 31.86, 105.00 32.53 S 108.73 29.97, 110.00 29.16 S 113.50 26.27, 115.00 26.17 S 118.95 29.57, 120.00 28.50 S 123.53 16.31, 125.00 16.00 S 129.09 25.21, 130.00 26.41 S 133.50 29.26, 135.00 29.16 S 138.74 26.56, 140.00 25.74 S 143.89 21.65, 145.00 22.66 S 149.04 33.67, 150.00 34.83 S 153.66 35.34, 155.00 34.66 S 158.56 30.15, 160.00 29.73 S 163.63 31.10, 165.00 31.71 S 168.54 33.83, 170.00 34.17 S 173.57 33.55, 175.00 34.01 S 178.58 36.94, 180.00 37.41 S 183.60 37.84, 185.00 37.30 S 188.50 33.58, 190.00 33.54 S 193.58 36.60, 195.00 37.09 S 199.02 38.11, 200.00 36.98 S 204.40 26.97, 205.00 25.60"
        fill="none">
        <animate attributeName="stroke-dashoffset"
            from="273.95472833108727" to="0" dur="2.2s"/>
        <animate attributeName="stroke-dasharray"
            from="273.95472833108727" to="273.95472833108727"/>
    </path>
    <circle r="4" cx="5" cy="46" fill="#3023AE"/>
    <circle r="4" cx="205" cy="25.596726530389446" fill="#C86DD7" opacity="0">
        <animate attributeName="opacity"
            from="0" to="1" dur="0.1s" begin="2.2s" fill="freeze"/>
    </circle>
</svg>