<svg width="200" height="50" viewBox="0 0 210 50" xmlns="http://www.w3.org/2000/svg">
    <!-- 9081 stargazers -->
    <!-- created at Tue Sep 15 2026 03:46:22 GMT+0000 (Coordinated Universal Time) -->
    <defs>
        <linearGradient id="stroke" x1="0%" y1="0%" x2="100%" y2="0%">
            <stop stop-color="#3023AE" offset="0%"/>
            <stop stop-color="#C86DD7" offset="100%"/>
        </linearGradient>
    </defs>
    <path stroke="url(#stroke)"
        stroke-width="3"
        stroke-linejoin="round"
        stroke-linecap="round"
        d="M5.00 46.0001 C 6.39 45.43, 8.53 44.28, 10.00 43.96 S 13.50 43.96, 15.00 43.85 S 18.53 43.55, 20.00 43.24 S 23.82 42.62, 25.00 41.70 S 28.85 36.43, 30.00 35.46 S 33.50 33.31, 35.00 33.29 S 38.51 35.13, 40.00 35.32 S 43.51 34.72, 45.00 34.57 S 48.56 34.73, 50.00 34.32 S 53.58 32.21, 55.00 31.72 S 58.51 31.03, 60.00 30.86 S 63.51 30.43, 65.00 30.56 S 68.50 31.81, 70.00 31.76 S 73.56 30.64, 75.00 30.23 S 78.51 29.10, 80.00 28.92 S 83.51 29.18, 85.00 29.03 S 88.53 28.20, 90.00 27.92 S 93.50 27.10, 95.00 27.16 S 98.50 28.28, 100.00 28.30 S 103.54 27.58, 105.00 27.24 S 108.55 26.36, 110.00 25.99 S 113.51 24.85, 115.00 24.71 S 118.51 25.20, 120.00 25.03 S 123.65 24.22, 125.00 23.57 S 128.59 20.79, 130.00 20.28 S 133.50 19.92, 135.00 19.95 S 138.51 20.38, 140.00 20.52 S 143.63 21.50, 145.00 20.89 S 148.62 16.60, 150.00 16.00 S 153.58 16.05, 155.00 16.54 S 158.60 18.94, 160.00 19.48 S 163.50 20.31, 165.00 20.34 S 168.50 19.78, 170.00 19.66 S 173.56 19.12, 175.00 19.54 S 178.51 22.68, 180.00 22.56 S 183.53 19.01, 185.00 18.71 S 188.56 20.08, 190.00 20.52 S 193.55 21.35, 195.00 21.73 S 198.99 22.03, 200.00 23.14 S 204.31 31.39, 205.00 32.72"
        fill="none">
        <animate attributeName="stroke-dashoffset"
            from="220.4547945837519" to="0" dur="2.2s"/>
        <animate attributeName="stroke-dasharray"
            from="220.4547945837519" to="220.4547945837519"/>
    </path>
    <circle r="4" cx="5" cy="46" fill="#3023AE"/>
    <circle r="4" cx="205" cy="32.719052116938755" fill="#C86DD7" opacity="0">
        <animate attributeName="opacity"
            from="0" to="1" dur="0.1s" begin="2.2s" fill="freeze"/>
    </circle>
</svg>