
      <svg
        width="400"
        height="120"
        viewBox="0 0 400 120"
        fill="none"
        xmlns="http://www.w3.org/2000/svg"
        role="img"
        aria-labelledby="descId"
      >
        <title id="titleId"></title>
        <desc id="descId"></desc>
        <style>
          .header {
            font: 600 18px 'Segoe UI', Ubuntu, Sans-Serif;
            fill: #4493f8;
            animation: fadeInAnimation 0.8s ease-in-out forwards;
          }
          @supports(-moz-appearance: auto) {
            /* Selector detects Firefox */
            .header { font-size: 15.5px; }
          }
          
    .description { font: 400 13px 'Segoe UI', Ubuntu, Sans-Serif; fill: #8d96a0 }
    .gray { font: 400 12px 'Segoe UI', Ubuntu, Sans-Serif; fill: #8d96a0 }
    .icon { fill: #8d96a0 }
  

          
      /* Animations */
      @keyframes scaleInAnimation {
        from {
          transform: translate(-5px, 5px) scale(0);
        }
        to {
          transform: translate(-5px, 5px) scale(1);
        }
      }
      @keyframes fadeInAnimation {
        from {
          opacity: 0;
        }
        to {
          opacity: 1;
        }
      }
    
          
        </style>

        

        <rect
          data-testid="card-bg"
          x="0.5"
          y="0.5"
          rx="4.5"
          height="99%"
          stroke="#30363e"
          width="399"
          fill="#0c1117"
          stroke-opacity="1"
        />

        
      <g
        data-testid="card-title"
        transform="translate(25, 35)"
      >
        <g transform="translate(0, 0)">
      <svg
        class="icon"
        x="0"
        y="-13"
        viewBox="0 0 16 16"
        version="1.1"
        width="16"
        height="16"
      >
        <path fill-rule="evenodd" d="M0 1.75C0 .784.784 0 1.75 0h12.5C15.216 0 16 .784 16 1.75v12.5A1.75 1.75 0 0 1 14.25 16H1.75A1.75 1.75 0 0 1 0 14.25Zm1.75-.25a.25.25 0 0 0-.25.25v12.5c0 .138.112.25.25.25h12.5a.25.25 0 0 0 .25-.25V1.75a.25.25 0 0 0-.25-.25Zm7.47 3.97a.75.75 0 0 1 1.06 0l2 2a.75.75 0 0 1 0 1.06l-2 2a.749.749 0 0 1-1.275-.326.749.749 0 0 1 .215-.734L10.69 8 9.22 6.53a.75.75 0 0 1 0-1.06ZM6.78 6.53 5.31 8l1.47 1.47a.749.749 0 0 1-.326 1.275.749.749 0 0 1-.734-.215l-2-2a.75.75 0 0 1 0-1.06l2-2a.751.751 0 0 1 1.042.018.751.751 0 0 1 .018 1.042Z" />
      </svg>
    </g><g transform="translate(25, 0)">
      <text
        x="0"
        y="0"
        class="header"
        data-testid="header"
      >conventional-commits-cheatsheet.md</text>
    </g>
      </g>
    

        <g
          data-testid="main-card-body"
          transform="translate(0, 55)"
        >
          
    <text class="description" x="25" y="-5">
        <tspan dy="1.2em" x="25">Conventional Commits Cheatsheet</tspan>
    </text>

    <g transform="translate(30, 45)">
        <g transform="translate(0, 0)">
    <g data-testid="primary-lang">
      <circle data-testid="lang-color" cx="0" cy="-5" r="6" fill="#083fa1" />
      <text data-testid="lang-name" class="gray" x="15">Markdown</text>
    </g>
    </g><g transform="translate(80.275, 0)"><g transform="translate(0, 0)">
      <svg
        class="icon"
        y="-12"
        viewBox="0 0 16 16"
        version="1.1"
        width="16"
        height="16"
      >
        <path fill-rule="evenodd" d="M8 .25a.75.75 0 01.673.418l1.882 3.815 4.21.612a.75.75 0 01.416 1.279l-3.046 2.97.719 4.192a.75.75 0 01-1.088.791L8 12.347l-3.766 1.98a.75.75 0 01-1.088-.79l.72-4.194L.818 6.374a.75.75 0 01.416-1.28l4.21-.611L7.327.668A.75.75 0 018 .25zm0 2.445L6.615 5.5a.75.75 0 01-.564.41l-3.097.45 2.24 2.184a.75.75 0 01.216.664l-.528 3.084 2.769-1.456a.75.75 0 01.698 0l2.77 1.456-.53-3.084a.75.75 0 01.216-.664l2.24-2.183-3.096-.45a.75.75 0 01-.564-.41L8 2.694v.001z"/>
      </svg>
    </g><g transform="translate(20, 0)"><text data-testid="starsCount" class="gray">4.3k</text></g></g><g transform="translate(143.90625, 0)"><g transform="translate(0, 0)">
      <svg
        class="icon"
        y="-12"
        viewBox="0 0 16 16"
        version="1.1"
        width="16"
        height="16"
      >
        <path fill-rule="evenodd" d="M5 3.25a.75.75 0 11-1.5 0 .75.75 0 011.5 0zm0 2.122a2.25 2.25 0 10-1.5 0v.878A2.25 2.25 0 005.75 8.5h1.5v2.128a2.251 2.251 0 101.5 0V8.5h1.5a2.25 2.25 0 002.25-2.25v-.878a2.25 2.25 0 10-1.5 0v.878a.75.75 0 01-.75.75h-4.5A.75.75 0 015 6.25v-.878zm3.75 7.378a.75.75 0 11-1.5 0 .75.75 0 011.5 0zm3-8.75a.75.75 0 100-1.5.75.75 0 000 1.5z"></path>
      </svg>
    </g><g transform="translate(20, 0)"><text data-testid="forksCount" class="gray">617</text></g></g>
    </g>
  
        </g>
      </svg>
    