<svg width="200" height="50" viewBox="0 0 210 50" xmlns="http://www.w3.org/2000/svg">
    <!-- 34 stargazers -->
    <!-- created at Thu Oct 08 2026 04:50:41 GMT+0000 (Coordinated Universal Time) -->
    <defs>
        <linearGradient id="stroke" x1="0%" y1="0%" x2="100%" y2="0%">
            <stop stop-color="#3023AE" offset="0%"/>
            <stop stop-color="#C86DD7" offset="100%"/>
        </linearGradient>
    </defs>
    <path stroke="url(#stroke)"
        stroke-width="3"
        stroke-linejoin="round"
        stroke-linecap="round"
        d="M5.00 46.0001 C 5.25 44.52, 9.41 17.38, 10.00 16.00 S 14.13 21.50, 15.00 22.73 S 18.73 29.29, 20.00 30.09 S 24.20 27.71, 25.00 28.98 S 28.53 46.30, 30.00 46.00 S 34.33 28.29, 35.00 26.95 S 38.74 26.83, 40.00 26.01 S 44.33 19.08, 45.00 20.42 S 48.92 44.96, 50.00 46.00 S 53.50 30.04, 55.00 30.04 S 58.51 46.17, 60.00 46.00 S 63.50 28.94, 65.00 28.94 S 68.51 46.16, 70.00 46.00 S 74.29 29.22, 75.00 27.90 S 78.51 27.55, 80.00 27.40 S 83.51 27.06, 85.00 26.92 S 88.51 26.58, 90.00 26.44 S 94.32 24.65, 95.00 25.98 S 99.33 44.66, 100.00 46.00 S 103.50 46.00, 105.00 46.00 S 108.50 46.00, 110.00 46.00 S 113.50 46.00, 115.00 46.00 S 118.50 46.00, 120.00 46.00 S 123.50 46.00, 125.00 46.00 S 129.41 47.38, 130.00 46.00 S 133.50 22.61, 135.00 22.61 S 139.41 44.62, 140.00 46.00 S 143.50 46.00, 145.00 46.00 S 148.50 46.00, 150.00 46.00 S 153.50 46.00, 155.00 46.00 S 158.50 46.00, 160.00 46.00 S 163.50 46.00, 165.00 46.00 S 168.50 46.00, 170.00 46.00 S 173.50 46.00, 175.00 46.00 S 178.50 46.00, 180.00 46.00 S 183.50 46.00, 185.00 46.00 S 188.50 46.00, 190.00 46.00 S 193.50 46.00, 195.00 46.00 S 198.50 46.00, 200.00 46.00 S 203.50 46.00, 205.00 46.00"
        fill="none">
        <animate attributeName="stroke-dashoffset"
            from="404.84877375167724" to="0" dur="2.2s"/>
        <animate attributeName="stroke-dasharray"
            from="404.84877375167724" to="404.84877375167724"/>
    </path>
    <circle r="4" cx="5" cy="46" fill="#3023AE"/>
    <circle r="4" cx="205" cy="46" fill="#C86DD7" opacity="0">
        <animate attributeName="opacity"
            from="0" to="1" dur="0.1s" begin="2.2s" fill="freeze"/>
    </circle>
</svg>