<svg width="200" height="50" viewBox="0 0 210 50" xmlns="http://www.w3.org/2000/svg">
    <!-- 4901 stargazers -->
    <!-- created at Fri Jul 31 2026 02:53:14 GMT+0000 (Coordinated Universal Time) -->
    <defs>
        <linearGradient id="stroke" x1="0%" y1="0%" x2="100%" y2="0%">
            <stop stop-color="#3023AE" offset="0%"/>
            <stop stop-color="#C86DD7" offset="100%"/>
        </linearGradient>
    </defs>
    <path stroke="url(#stroke)"
        stroke-width="3"
        stroke-linejoin="round"
        stroke-linecap="round"
        d="M5.00 46.0001 C 6.39 45.43, 8.71 44.72, 10.00 43.96 S 13.72 40.86, 15.00 40.08 S 18.66 38.57, 20.00 37.90 S 23.57 35.52, 25.00 35.08 S 28.52 35.06, 30.00 34.81 S 33.62 33.96, 35.00 33.37 S 38.52 30.78, 40.00 30.56 S 43.50 31.85, 45.00 31.94 S 48.55 31.59, 50.00 31.22 S 53.50 29.51, 55.00 29.41 S 58.51 30.70, 60.00 30.52 S 63.58 28.67, 65.00 28.18 S 68.52 27.23, 70.00 27.02 S 73.54 27.05, 75.00 26.70 S 78.53 24.89, 80.00 24.61 S 83.52 25.08, 85.00 24.84 S 88.60 23.50, 90.00 22.97 S 93.57 21.51, 95.00 21.05 S 98.58 20.22, 100.00 19.74 S 103.50 17.65, 105.00 17.71 S 108.59 19.62, 110.00 20.12 S 113.55 21.63, 115.00 21.24 S 118.65 18.03, 120.00 17.38 S 123.50 16.42, 125.00 16.46 S 128.50 17.67, 130.00 17.60 S 133.50 15.88, 135.00 16.00 S 138.57 17.92, 140.00 18.38 S 143.50 19.15, 145.00 19.22 S 148.51 18.94, 150.00 18.80 S 153.54 18.63, 155.00 18.29 S 158.51 16.32, 160.00 16.45 S 163.70 18.38, 165.00 19.12 S 168.50 22.20, 170.00 22.17 S 173.70 19.72, 175.00 18.97 S 178.51 16.60, 180.00 16.43 S 183.57 17.32, 185.00 17.79 S 188.50 19.68, 190.00 19.71 S 193.50 18.02, 195.00 17.96 S 198.61 18.77, 200.00 19.34 S 203.69 21.37, 205.00 22.10"
        fill="none">
        <animate attributeName="stroke-dashoffset"
            from="216.1983489456353" to="0" dur="2.2s"/>
        <animate attributeName="stroke-dasharray"
            from="216.1983489456353" to="216.1983489456353"/>
    </path>
    <circle r="4" cx="5" cy="46" fill="#3023AE"/>
    <circle r="4" cx="205" cy="22.09651146655653" fill="#C86DD7" opacity="0">
        <animate attributeName="opacity"
            from="0" to="1" dur="0.1s" begin="2.2s" fill="freeze"/>
    </circle>
</svg>